<mxfile host="app.diagrams.net" modified="2022-08-24T08:46:24.701Z" agent="5.0 (Windows NT 10.0; Win64; x64) AppleWebKit/537.36 (KHTML, like Gecko) Chrome/104.0.0.0 Safari/537.36" etag="fiK2qFxOMuXB4g7tS0yN" version="20.2.6" type="github" pages="7">
  <diagram id="kgpKYQtTHZ0yAKxKKP6v" name="회원가입">
    <mxGraphModel dx="1102" dy="637" grid="1" gridSize="10" guides="1" tooltips="1" connect="1" arrows="1" fold="1" page="1" pageScale="1" pageWidth="850" pageHeight="1100" math="0" shadow="0">
      <root>
        <mxCell id="0" />
        <mxCell id="1" parent="0" />
        <mxCell id="3nuBFxr9cyL0pnOWT2aG-1" value="고객" style="shape=umlLifeline;perimeter=lifelinePerimeter;container=1;collapsible=0;recursiveResize=0;rounded=0;shadow=0;strokeWidth=1;" parent="1" vertex="1">
          <mxGeometry x="120" y="80" width="100" height="470" as="geometry" />
        </mxCell>
        <mxCell id="3nuBFxr9cyL0pnOWT2aG-2" value="" style="points=[];perimeter=orthogonalPerimeter;rounded=0;shadow=0;strokeWidth=1;" parent="3nuBFxr9cyL0pnOWT2aG-1" vertex="1">
          <mxGeometry x="45" y="70" width="10" height="350" as="geometry" />
        </mxCell>
        <mxCell id="3F2S0hOFtXyXd2VeS6J_-11" value="회원가입 요청" style="html=1;verticalAlign=bottom;endArrow=block;rounded=0;fontFamily=Lucida Console;" parent="3nuBFxr9cyL0pnOWT2aG-1" target="3nuBFxr9cyL0pnOWT2aG-5" edge="1">
          <mxGeometry width="80" relative="1" as="geometry">
            <mxPoint x="60" y="130" as="sourcePoint" />
            <mxPoint x="125" y="130" as="targetPoint" />
            <Array as="points">
              <mxPoint x="85" y="130" />
            </Array>
          </mxGeometry>
        </mxCell>
        <mxCell id="3F2S0hOFtXyXd2VeS6J_-28" value="회원정보최종입력" style="html=1;verticalAlign=bottom;endArrow=block;rounded=0;fontFamily=Lucida Console;" parent="3nuBFxr9cyL0pnOWT2aG-1" target="3nuBFxr9cyL0pnOWT2aG-5" edge="1">
          <mxGeometry width="80" relative="1" as="geometry">
            <mxPoint x="60" y="260" as="sourcePoint" />
            <mxPoint x="125" y="260" as="targetPoint" />
          </mxGeometry>
        </mxCell>
        <mxCell id="3nuBFxr9cyL0pnOWT2aG-5" value="화면" style="shape=umlLifeline;perimeter=lifelinePerimeter;container=1;collapsible=0;recursiveResize=0;rounded=0;shadow=0;strokeWidth=1;" parent="1" vertex="1">
          <mxGeometry x="300" y="80" width="100" height="470" as="geometry" />
        </mxCell>
        <mxCell id="3nuBFxr9cyL0pnOWT2aG-6" value="" style="points=[];perimeter=orthogonalPerimeter;rounded=0;shadow=0;strokeWidth=1;" parent="3nuBFxr9cyL0pnOWT2aG-5" vertex="1">
          <mxGeometry x="45" y="70" width="10" height="40" as="geometry" />
        </mxCell>
        <mxCell id="3F2S0hOFtXyXd2VeS6J_-9" value="홈페이지화면 출력" style="html=1;verticalAlign=bottom;endArrow=open;dashed=1;endSize=8;rounded=0;fontFamily=Lucida Console;" parent="3nuBFxr9cyL0pnOWT2aG-5" edge="1">
          <mxGeometry relative="1" as="geometry">
            <mxPoint x="46" y="100" as="sourcePoint" />
            <mxPoint x="-129.5" y="100" as="targetPoint" />
            <Array as="points" />
          </mxGeometry>
        </mxCell>
        <mxCell id="3F2S0hOFtXyXd2VeS6J_-13" value="아이디 중복확인요청" style="html=1;verticalAlign=bottom;endArrow=block;rounded=0;fontFamily=Lucida Console;" parent="3nuBFxr9cyL0pnOWT2aG-5" target="Ef-pcO3PlBszpXkjyQie-1" edge="1">
          <mxGeometry width="80" relative="1" as="geometry">
            <mxPoint x="55" y="160" as="sourcePoint" />
            <mxPoint x="135" y="160" as="targetPoint" />
            <Array as="points" />
          </mxGeometry>
        </mxCell>
        <mxCell id="3F2S0hOFtXyXd2VeS6J_-22" value="" style="html=1;points=[];perimeter=orthogonalPerimeter;fontFamily=Lucida Console;" parent="3nuBFxr9cyL0pnOWT2aG-5" vertex="1">
          <mxGeometry x="45" y="130" width="10" height="100" as="geometry" />
        </mxCell>
        <mxCell id="3F2S0hOFtXyXd2VeS6J_-24" value="중복여부결과출력" style="html=1;verticalAlign=bottom;endArrow=open;dashed=1;endSize=8;rounded=0;fontFamily=Lucida Console;" parent="3nuBFxr9cyL0pnOWT2aG-5" target="3nuBFxr9cyL0pnOWT2aG-1" edge="1">
          <mxGeometry relative="1" as="geometry">
            <mxPoint x="45" y="220" as="sourcePoint" />
            <mxPoint x="-35" y="220" as="targetPoint" />
          </mxGeometry>
        </mxCell>
        <mxCell id="3F2S0hOFtXyXd2VeS6J_-25" value="" style="html=1;points=[];perimeter=orthogonalPerimeter;fontFamily=Lucida Console;" parent="3nuBFxr9cyL0pnOWT2aG-5" vertex="1">
          <mxGeometry x="45" y="250" width="10" height="140" as="geometry" />
        </mxCell>
        <mxCell id="3F2S0hOFtXyXd2VeS6J_-37" value="회원정보전달" style="html=1;verticalAlign=bottom;endArrow=block;rounded=0;fontFamily=Lucida Console;" parent="3nuBFxr9cyL0pnOWT2aG-5" target="Ef-pcO3PlBszpXkjyQie-1" edge="1">
          <mxGeometry x="-0.0291" y="15" width="80" relative="1" as="geometry">
            <mxPoint x="55" y="264.5" as="sourcePoint" />
            <mxPoint x="135" y="264.5" as="targetPoint" />
            <Array as="points">
              <mxPoint x="85" y="264.5" />
            </Array>
            <mxPoint y="1" as="offset" />
          </mxGeometry>
        </mxCell>
        <mxCell id="3nuBFxr9cyL0pnOWT2aG-8" value="시스템접속" style="verticalAlign=bottom;endArrow=block;entryX=0;entryY=0;shadow=0;strokeWidth=1;fontFamily=Lucida Console;fontStyle=5;horizontal=1;" parent="1" source="3nuBFxr9cyL0pnOWT2aG-2" target="3nuBFxr9cyL0pnOWT2aG-6" edge="1">
          <mxGeometry relative="1" as="geometry">
            <mxPoint x="275" y="160" as="sourcePoint" />
          </mxGeometry>
        </mxCell>
        <mxCell id="Ef-pcO3PlBszpXkjyQie-1" value="서버" style="shape=umlLifeline;perimeter=lifelinePerimeter;container=1;collapsible=0;recursiveResize=0;rounded=0;shadow=0;strokeWidth=1;" parent="1" vertex="1">
          <mxGeometry x="460" y="80" width="100" height="470" as="geometry" />
        </mxCell>
        <mxCell id="3F2S0hOFtXyXd2VeS6J_-14" value="" style="html=1;points=[];perimeter=orthogonalPerimeter;fontFamily=Lucida Console;" parent="Ef-pcO3PlBszpXkjyQie-1" vertex="1">
          <mxGeometry x="45" y="150" width="10" height="70" as="geometry" />
        </mxCell>
        <mxCell id="3F2S0hOFtXyXd2VeS6J_-16" value="중복확인요청" style="html=1;verticalAlign=bottom;endArrow=block;rounded=0;fontFamily=Lucida Console;" parent="Ef-pcO3PlBszpXkjyQie-1" edge="1">
          <mxGeometry width="80" relative="1" as="geometry">
            <mxPoint x="55" y="173" as="sourcePoint" />
            <mxPoint x="209.5" y="173" as="targetPoint" />
            <Array as="points">
              <mxPoint x="130" y="173" />
              <mxPoint x="140" y="173" />
              <mxPoint x="150" y="173" />
            </Array>
          </mxGeometry>
        </mxCell>
        <mxCell id="3F2S0hOFtXyXd2VeS6J_-23" value="중복여부결과반환" style="html=1;verticalAlign=bottom;endArrow=open;dashed=1;endSize=8;rounded=0;fontFamily=Lucida Console;" parent="Ef-pcO3PlBszpXkjyQie-1" target="3nuBFxr9cyL0pnOWT2aG-5" edge="1">
          <mxGeometry relative="1" as="geometry">
            <mxPoint x="45" y="210" as="sourcePoint" />
            <mxPoint x="-35" y="210" as="targetPoint" />
          </mxGeometry>
        </mxCell>
        <mxCell id="3F2S0hOFtXyXd2VeS6J_-26" value="" style="html=1;points=[];perimeter=orthogonalPerimeter;fontFamily=Lucida Console;" parent="Ef-pcO3PlBszpXkjyQie-1" vertex="1">
          <mxGeometry x="45" y="260" width="10" height="140" as="geometry" />
        </mxCell>
        <mxCell id="3F2S0hOFtXyXd2VeS6J_-38" value="회원정보업로드" style="html=1;verticalAlign=bottom;endArrow=block;rounded=0;fontFamily=Lucida Console;" parent="Ef-pcO3PlBszpXkjyQie-1" target="Ef-pcO3PlBszpXkjyQie-3" edge="1">
          <mxGeometry y="10" width="80" relative="1" as="geometry">
            <mxPoint x="55" y="279.5" as="sourcePoint" />
            <mxPoint x="135" y="279.5" as="targetPoint" />
            <mxPoint as="offset" />
          </mxGeometry>
        </mxCell>
        <mxCell id="3F2S0hOFtXyXd2VeS6J_-43" value="" style="html=1;points=[];perimeter=orthogonalPerimeter;fontFamily=Lucida Console;" parent="Ef-pcO3PlBszpXkjyQie-1" vertex="1">
          <mxGeometry x="55" y="340" width="10" height="40" as="geometry" />
        </mxCell>
        <mxCell id="3F2S0hOFtXyXd2VeS6J_-44" value="세션에로그인정보저장" style="edgeStyle=orthogonalEdgeStyle;html=1;align=left;spacingLeft=2;endArrow=block;rounded=0;entryX=1;entryY=0;fontFamily=Lucida Console;" parent="Ef-pcO3PlBszpXkjyQie-1" target="3F2S0hOFtXyXd2VeS6J_-43" edge="1">
          <mxGeometry relative="1" as="geometry">
            <mxPoint x="60" y="320" as="sourcePoint" />
            <Array as="points">
              <mxPoint x="90" y="320" />
            </Array>
          </mxGeometry>
        </mxCell>
        <mxCell id="Ef-pcO3PlBszpXkjyQie-3" value="DB" style="shape=umlLifeline;perimeter=lifelinePerimeter;container=1;collapsible=0;recursiveResize=0;rounded=0;shadow=0;strokeWidth=1;" parent="1" vertex="1">
          <mxGeometry x="620" y="80" width="100" height="470" as="geometry" />
        </mxCell>
        <mxCell id="Ef-pcO3PlBszpXkjyQie-4" value="" style="points=[];perimeter=orthogonalPerimeter;rounded=0;shadow=0;strokeWidth=1;" parent="Ef-pcO3PlBszpXkjyQie-3" vertex="1">
          <mxGeometry x="45" y="150" width="10" height="80" as="geometry" />
        </mxCell>
        <mxCell id="3F2S0hOFtXyXd2VeS6J_-17" value="중복여부결과반환" style="html=1;verticalAlign=bottom;endArrow=open;dashed=1;endSize=8;rounded=0;fontFamily=Lucida Console;" parent="Ef-pcO3PlBszpXkjyQie-3" target="Ef-pcO3PlBszpXkjyQie-1" edge="1">
          <mxGeometry relative="1" as="geometry">
            <mxPoint x="50" y="200" as="sourcePoint" />
            <mxPoint x="-30" y="200" as="targetPoint" />
          </mxGeometry>
        </mxCell>
        <mxCell id="3F2S0hOFtXyXd2VeS6J_-20" value="" style="html=1;points=[];perimeter=orthogonalPerimeter;fontFamily=Lucida Console;" parent="Ef-pcO3PlBszpXkjyQie-3" vertex="1">
          <mxGeometry x="50" y="170" width="10" height="40" as="geometry" />
        </mxCell>
        <mxCell id="3F2S0hOFtXyXd2VeS6J_-21" value="중복여부 조회" style="edgeStyle=orthogonalEdgeStyle;html=1;align=left;spacingLeft=2;endArrow=block;rounded=0;entryX=1;entryY=0;fontFamily=Lucida Console;" parent="Ef-pcO3PlBszpXkjyQie-3" target="3F2S0hOFtXyXd2VeS6J_-20" edge="1">
          <mxGeometry relative="1" as="geometry">
            <mxPoint x="55" y="150" as="sourcePoint" />
            <Array as="points">
              <mxPoint x="85" y="150" />
            </Array>
          </mxGeometry>
        </mxCell>
        <mxCell id="3F2S0hOFtXyXd2VeS6J_-27" value="" style="html=1;points=[];perimeter=orthogonalPerimeter;fontFamily=Lucida Console;" parent="Ef-pcO3PlBszpXkjyQie-3" vertex="1">
          <mxGeometry x="45" y="270" width="10" height="70" as="geometry" />
        </mxCell>
        <mxCell id="3F2S0hOFtXyXd2VeS6J_-42" value="업로드결과반환" style="html=1;verticalAlign=bottom;endArrow=open;dashed=1;endSize=8;rounded=0;fontFamily=Lucida Console;" parent="1" target="Ef-pcO3PlBszpXkjyQie-1" edge="1">
          <mxGeometry relative="1" as="geometry">
            <mxPoint x="664" y="395" as="sourcePoint" />
            <mxPoint x="584" y="395" as="targetPoint" />
          </mxGeometry>
        </mxCell>
        <mxCell id="3F2S0hOFtXyXd2VeS6J_-45" value="회원가입결과 및 세션값 반환" style="html=1;verticalAlign=bottom;endArrow=open;dashed=1;endSize=8;rounded=0;fontFamily=Lucida Console;" parent="1" target="3nuBFxr9cyL0pnOWT2aG-5" edge="1">
          <mxGeometry relative="1" as="geometry">
            <mxPoint x="510" y="430" as="sourcePoint" />
            <mxPoint x="430" y="430" as="targetPoint" />
          </mxGeometry>
        </mxCell>
        <mxCell id="3F2S0hOFtXyXd2VeS6J_-46" value="환영페이지 출력" style="html=1;verticalAlign=bottom;endArrow=open;dashed=1;endSize=8;rounded=0;fontFamily=Lucida Console;" parent="1" target="3nuBFxr9cyL0pnOWT2aG-1" edge="1">
          <mxGeometry relative="1" as="geometry">
            <mxPoint x="350" y="440" as="sourcePoint" />
            <mxPoint x="270" y="440" as="targetPoint" />
          </mxGeometry>
        </mxCell>
      </root>
    </mxGraphModel>
  </diagram>
  <diagram id="2pmcGRS6dtbRZ_BKUxWc" name="로그인">
    <mxGraphModel dx="1102" dy="580" grid="1" gridSize="10" guides="1" tooltips="1" connect="1" arrows="1" fold="1" page="1" pageScale="1" pageWidth="827" pageHeight="1169" math="0" shadow="0">
      <root>
        <mxCell id="0" />
        <mxCell id="1" parent="0" />
        <mxCell id="QAPQvBMivtKfQnfH5dEY-1" value="고객" style="shape=umlLifeline;perimeter=lifelinePerimeter;container=1;collapsible=0;recursiveResize=0;rounded=0;shadow=0;strokeWidth=1;" parent="1" vertex="1">
          <mxGeometry x="120" y="80" width="100" height="470" as="geometry" />
        </mxCell>
        <mxCell id="QAPQvBMivtKfQnfH5dEY-2" value="" style="points=[];perimeter=orthogonalPerimeter;rounded=0;shadow=0;strokeWidth=1;" parent="QAPQvBMivtKfQnfH5dEY-1" vertex="1">
          <mxGeometry x="45" y="70" width="10" height="350" as="geometry" />
        </mxCell>
        <mxCell id="QAPQvBMivtKfQnfH5dEY-3" value="로그인 요청" style="html=1;verticalAlign=bottom;endArrow=block;rounded=0;fontFamily=Lucida Console;" parent="QAPQvBMivtKfQnfH5dEY-1" target="QAPQvBMivtKfQnfH5dEY-5" edge="1">
          <mxGeometry width="80" relative="1" as="geometry">
            <mxPoint x="60" y="130" as="sourcePoint" />
            <mxPoint x="125" y="130" as="targetPoint" />
            <Array as="points">
              <mxPoint x="85" y="130" />
            </Array>
          </mxGeometry>
        </mxCell>
        <mxCell id="QAPQvBMivtKfQnfH5dEY-5" value="화면" style="shape=umlLifeline;perimeter=lifelinePerimeter;container=1;collapsible=0;recursiveResize=0;rounded=0;shadow=0;strokeWidth=1;" parent="1" vertex="1">
          <mxGeometry x="300" y="80" width="100" height="470" as="geometry" />
        </mxCell>
        <mxCell id="QAPQvBMivtKfQnfH5dEY-6" value="" style="points=[];perimeter=orthogonalPerimeter;rounded=0;shadow=0;strokeWidth=1;" parent="QAPQvBMivtKfQnfH5dEY-5" vertex="1">
          <mxGeometry x="45" y="70" width="10" height="40" as="geometry" />
        </mxCell>
        <mxCell id="QAPQvBMivtKfQnfH5dEY-7" value="홈페이지화면 출력" style="html=1;verticalAlign=bottom;endArrow=open;dashed=1;endSize=8;rounded=0;fontFamily=Lucida Console;" parent="QAPQvBMivtKfQnfH5dEY-5" edge="1">
          <mxGeometry relative="1" as="geometry">
            <mxPoint x="46" y="100" as="sourcePoint" />
            <mxPoint x="-129.5" y="100" as="targetPoint" />
            <Array as="points" />
          </mxGeometry>
        </mxCell>
        <mxCell id="QAPQvBMivtKfQnfH5dEY-8" value="아이디 및 비밀번호 전송" style="html=1;verticalAlign=bottom;endArrow=block;rounded=0;fontFamily=Lucida Console;" parent="QAPQvBMivtKfQnfH5dEY-5" target="QAPQvBMivtKfQnfH5dEY-14" edge="1">
          <mxGeometry width="80" relative="1" as="geometry">
            <mxPoint x="55" y="160" as="sourcePoint" />
            <mxPoint x="135" y="160" as="targetPoint" />
            <Array as="points" />
          </mxGeometry>
        </mxCell>
        <mxCell id="QAPQvBMivtKfQnfH5dEY-9" value="" style="html=1;points=[];perimeter=orthogonalPerimeter;fontFamily=Lucida Console;" parent="QAPQvBMivtKfQnfH5dEY-5" vertex="1">
          <mxGeometry x="45" y="130" width="10" height="240" as="geometry" />
        </mxCell>
        <mxCell id="QAPQvBMivtKfQnfH5dEY-10" value="로그인 결과 출력" style="html=1;verticalAlign=bottom;endArrow=open;dashed=1;endSize=8;rounded=0;fontFamily=Lucida Console;" parent="QAPQvBMivtKfQnfH5dEY-5" edge="1">
          <mxGeometry relative="1" as="geometry">
            <mxPoint x="45" y="320" as="sourcePoint" />
            <mxPoint x="-130.5" y="320" as="targetPoint" />
          </mxGeometry>
        </mxCell>
        <mxCell id="QAPQvBMivtKfQnfH5dEY-13" value="시스템접속" style="verticalAlign=bottom;endArrow=block;entryX=0;entryY=0;shadow=0;strokeWidth=1;fontFamily=Lucida Console;fontStyle=5;horizontal=1;" parent="1" source="QAPQvBMivtKfQnfH5dEY-2" target="QAPQvBMivtKfQnfH5dEY-6" edge="1">
          <mxGeometry relative="1" as="geometry">
            <mxPoint x="275" y="160" as="sourcePoint" />
          </mxGeometry>
        </mxCell>
        <mxCell id="QAPQvBMivtKfQnfH5dEY-14" value="서버" style="shape=umlLifeline;perimeter=lifelinePerimeter;container=1;collapsible=0;recursiveResize=0;rounded=0;shadow=0;strokeWidth=1;" parent="1" vertex="1">
          <mxGeometry x="460" y="80" width="100" height="470" as="geometry" />
        </mxCell>
        <mxCell id="QAPQvBMivtKfQnfH5dEY-15" value="" style="html=1;points=[];perimeter=orthogonalPerimeter;fontFamily=Lucida Console;" parent="QAPQvBMivtKfQnfH5dEY-14" vertex="1">
          <mxGeometry x="45" y="150" width="10" height="160" as="geometry" />
        </mxCell>
        <mxCell id="QAPQvBMivtKfQnfH5dEY-16" value="로그인 정보 확인 요청" style="html=1;verticalAlign=bottom;endArrow=block;rounded=0;fontFamily=Lucida Console;" parent="QAPQvBMivtKfQnfH5dEY-14" edge="1">
          <mxGeometry width="80" relative="1" as="geometry">
            <mxPoint x="55" y="173" as="sourcePoint" />
            <mxPoint x="209.5" y="173" as="targetPoint" />
            <Array as="points">
              <mxPoint x="130" y="173" />
              <mxPoint x="140" y="173" />
              <mxPoint x="150" y="173" />
            </Array>
          </mxGeometry>
        </mxCell>
        <mxCell id="QAPQvBMivtKfQnfH5dEY-17" value="로그인 결과 반환" style="html=1;verticalAlign=bottom;endArrow=open;dashed=1;endSize=8;rounded=0;fontFamily=Lucida Console;" parent="QAPQvBMivtKfQnfH5dEY-14" edge="1">
          <mxGeometry relative="1" as="geometry">
            <mxPoint x="45" y="290" as="sourcePoint" />
            <mxPoint x="-110.5" y="290" as="targetPoint" />
          </mxGeometry>
        </mxCell>
        <mxCell id="QAPQvBMivtKfQnfH5dEY-31" value="" style="html=1;points=[];perimeter=orthogonalPerimeter;fontFamily=Lucida Console;" parent="QAPQvBMivtKfQnfH5dEY-14" vertex="1">
          <mxGeometry x="50" y="250" width="10" height="40" as="geometry" />
        </mxCell>
        <mxCell id="QAPQvBMivtKfQnfH5dEY-32" value="로그인 정보 세션에 저장" style="edgeStyle=orthogonalEdgeStyle;html=1;align=left;spacingLeft=2;endArrow=block;rounded=0;entryX=1;entryY=0;fontFamily=Lucida Console;" parent="QAPQvBMivtKfQnfH5dEY-14" target="QAPQvBMivtKfQnfH5dEY-31" edge="1">
          <mxGeometry relative="1" as="geometry">
            <mxPoint x="55" y="230" as="sourcePoint" />
            <Array as="points">
              <mxPoint x="85" y="230" />
            </Array>
          </mxGeometry>
        </mxCell>
        <mxCell id="QAPQvBMivtKfQnfH5dEY-22" value="DB" style="shape=umlLifeline;perimeter=lifelinePerimeter;container=1;collapsible=0;recursiveResize=0;rounded=0;shadow=0;strokeWidth=1;" parent="1" vertex="1">
          <mxGeometry x="620" y="80" width="100" height="470" as="geometry" />
        </mxCell>
        <mxCell id="QAPQvBMivtKfQnfH5dEY-23" value="" style="points=[];perimeter=orthogonalPerimeter;rounded=0;shadow=0;strokeWidth=1;" parent="QAPQvBMivtKfQnfH5dEY-22" vertex="1">
          <mxGeometry x="45" y="170" width="10" height="60" as="geometry" />
        </mxCell>
        <mxCell id="QAPQvBMivtKfQnfH5dEY-24" value="로그인 결과 반환" style="html=1;verticalAlign=bottom;endArrow=open;dashed=1;endSize=8;rounded=0;fontFamily=Lucida Console;" parent="QAPQvBMivtKfQnfH5dEY-22" edge="1">
          <mxGeometry relative="1" as="geometry">
            <mxPoint x="50" y="210" as="sourcePoint" />
            <mxPoint x="-110.5" y="210" as="targetPoint" />
          </mxGeometry>
        </mxCell>
        <mxCell id="QAPQvBMivtKfQnfH5dEY-25" value="" style="html=1;points=[];perimeter=orthogonalPerimeter;fontFamily=Lucida Console;" parent="QAPQvBMivtKfQnfH5dEY-22" vertex="1">
          <mxGeometry x="55" y="180" width="10" height="40" as="geometry" />
        </mxCell>
        <mxCell id="QAPQvBMivtKfQnfH5dEY-26" value="로그인 정보 확인" style="edgeStyle=orthogonalEdgeStyle;html=1;align=left;spacingLeft=2;endArrow=block;rounded=0;entryX=1;entryY=0;fontFamily=Lucida Console;" parent="QAPQvBMivtKfQnfH5dEY-22" edge="1">
          <mxGeometry relative="1" as="geometry">
            <mxPoint x="55" y="170" as="sourcePoint" />
            <Array as="points">
              <mxPoint x="85" y="170" />
            </Array>
            <mxPoint x="65" y="200" as="targetPoint" />
          </mxGeometry>
        </mxCell>
      </root>
    </mxGraphModel>
  </diagram>
  <diagram id="-jZb5dmv36M6j62hXFJL" name="장바구니">
    <mxGraphModel dx="1102" dy="580" grid="1" gridSize="10" guides="1" tooltips="1" connect="1" arrows="1" fold="1" page="1" pageScale="1" pageWidth="827" pageHeight="1169" math="0" shadow="0">
      <root>
        <mxCell id="0" />
        <mxCell id="1" parent="0" />
        <mxCell id="ipI6lHQ7gn7-n5a6CFZo-1" value="고객" style="shape=umlLifeline;perimeter=lifelinePerimeter;container=1;collapsible=0;recursiveResize=0;rounded=0;shadow=0;strokeWidth=1;" parent="1" vertex="1">
          <mxGeometry x="120" y="80" width="100" height="470" as="geometry" />
        </mxCell>
        <mxCell id="ipI6lHQ7gn7-n5a6CFZo-2" value="" style="points=[];perimeter=orthogonalPerimeter;rounded=0;shadow=0;strokeWidth=1;" parent="ipI6lHQ7gn7-n5a6CFZo-1" vertex="1">
          <mxGeometry x="45" y="70" width="10" height="170" as="geometry" />
        </mxCell>
        <mxCell id="6Oc7UGrF1Llb5wIBNULn-17" value="" style="html=1;points=[];perimeter=orthogonalPerimeter;fontFamily=Lucida Console;" parent="ipI6lHQ7gn7-n5a6CFZo-1" vertex="1">
          <mxGeometry x="45" y="260" width="10" height="110" as="geometry" />
        </mxCell>
        <mxCell id="6Oc7UGrF1Llb5wIBNULn-22" value="장바구니에 담기 클릭" style="html=1;verticalAlign=bottom;endArrow=block;rounded=0;fontFamily=Lucida Console;" parent="ipI6lHQ7gn7-n5a6CFZo-1" target="ipI6lHQ7gn7-n5a6CFZo-4" edge="1">
          <mxGeometry width="80" relative="1" as="geometry">
            <mxPoint x="50" y="270" as="sourcePoint" />
            <mxPoint x="130" y="270" as="targetPoint" />
          </mxGeometry>
        </mxCell>
        <mxCell id="ipI6lHQ7gn7-n5a6CFZo-4" value="화면" style="shape=umlLifeline;perimeter=lifelinePerimeter;container=1;collapsible=0;recursiveResize=0;rounded=0;shadow=0;strokeWidth=1;" parent="1" vertex="1">
          <mxGeometry x="300" y="80" width="100" height="470" as="geometry" />
        </mxCell>
        <mxCell id="ipI6lHQ7gn7-n5a6CFZo-5" value="" style="points=[];perimeter=orthogonalPerimeter;rounded=0;shadow=0;strokeWidth=1;" parent="ipI6lHQ7gn7-n5a6CFZo-4" vertex="1">
          <mxGeometry x="45" y="70" width="10" height="140" as="geometry" />
        </mxCell>
        <mxCell id="6Oc7UGrF1Llb5wIBNULn-9" value="상품정보요청" style="html=1;verticalAlign=bottom;endArrow=block;rounded=0;fontFamily=Lucida Console;" parent="ipI6lHQ7gn7-n5a6CFZo-4" target="ipI6lHQ7gn7-n5a6CFZo-11" edge="1">
          <mxGeometry width="80" relative="1" as="geometry">
            <mxPoint x="50" y="80" as="sourcePoint" />
            <mxPoint x="130" y="80" as="targetPoint" />
          </mxGeometry>
        </mxCell>
        <mxCell id="6Oc7UGrF1Llb5wIBNULn-18" value="" style="html=1;points=[];perimeter=orthogonalPerimeter;fontFamily=Lucida Console;" parent="ipI6lHQ7gn7-n5a6CFZo-4" vertex="1">
          <mxGeometry x="45" y="260" width="10" height="100" as="geometry" />
        </mxCell>
        <mxCell id="6Oc7UGrF1Llb5wIBNULn-23" value="장바구니에 담기위한 &lt;br&gt;정보전송" style="html=1;verticalAlign=bottom;endArrow=block;rounded=0;fontFamily=Lucida Console;" parent="ipI6lHQ7gn7-n5a6CFZo-4" target="ipI6lHQ7gn7-n5a6CFZo-11" edge="1">
          <mxGeometry width="80" relative="1" as="geometry">
            <mxPoint x="50" y="280" as="sourcePoint" />
            <mxPoint x="130" y="280" as="targetPoint" />
          </mxGeometry>
        </mxCell>
        <mxCell id="ipI6lHQ7gn7-n5a6CFZo-10" value="상품클릭" style="verticalAlign=bottom;endArrow=block;entryX=0;entryY=0;shadow=0;strokeWidth=1;fontFamily=Lucida Console;fontStyle=5;horizontal=1;" parent="1" source="ipI6lHQ7gn7-n5a6CFZo-2" target="ipI6lHQ7gn7-n5a6CFZo-5" edge="1">
          <mxGeometry relative="1" as="geometry">
            <mxPoint x="275" y="160" as="sourcePoint" />
          </mxGeometry>
        </mxCell>
        <mxCell id="ipI6lHQ7gn7-n5a6CFZo-11" value="서버" style="shape=umlLifeline;perimeter=lifelinePerimeter;container=1;collapsible=0;recursiveResize=0;rounded=0;shadow=0;strokeWidth=1;" parent="1" vertex="1">
          <mxGeometry x="460" y="80" width="100" height="470" as="geometry" />
        </mxCell>
        <mxCell id="6Oc7UGrF1Llb5wIBNULn-6" value="" style="html=1;points=[];perimeter=orthogonalPerimeter;fontFamily=Lucida Console;" parent="ipI6lHQ7gn7-n5a6CFZo-11" vertex="1">
          <mxGeometry x="45" y="70" width="10" height="140" as="geometry" />
        </mxCell>
        <mxCell id="6Oc7UGrF1Llb5wIBNULn-11" value="상품정보요청" style="html=1;verticalAlign=bottom;endArrow=block;rounded=0;fontFamily=Lucida Console;" parent="ipI6lHQ7gn7-n5a6CFZo-11" target="ipI6lHQ7gn7-n5a6CFZo-17" edge="1">
          <mxGeometry width="80" relative="1" as="geometry">
            <mxPoint x="50" y="100" as="sourcePoint" />
            <mxPoint x="130" y="100" as="targetPoint" />
          </mxGeometry>
        </mxCell>
        <mxCell id="6Oc7UGrF1Llb5wIBNULn-19" value="" style="html=1;points=[];perimeter=orthogonalPerimeter;fontFamily=Lucida Console;" parent="ipI6lHQ7gn7-n5a6CFZo-11" vertex="1">
          <mxGeometry x="45" y="260" width="10" height="100" as="geometry" />
        </mxCell>
        <mxCell id="6Oc7UGrF1Llb5wIBNULn-24" value="장바구니에 담기위한&lt;br&gt;정보전송" style="html=1;verticalAlign=bottom;endArrow=block;rounded=0;fontFamily=Lucida Console;" parent="ipI6lHQ7gn7-n5a6CFZo-11" target="ipI6lHQ7gn7-n5a6CFZo-17" edge="1">
          <mxGeometry width="80" relative="1" as="geometry">
            <mxPoint x="50" y="290" as="sourcePoint" />
            <mxPoint x="130" y="290" as="targetPoint" />
          </mxGeometry>
        </mxCell>
        <mxCell id="vw32TlPiH6fbDFEC2ICf-1" value="고객" style="shape=umlLifeline;perimeter=lifelinePerimeter;container=1;collapsible=0;recursiveResize=0;rounded=0;shadow=0;strokeWidth=1;" parent="ipI6lHQ7gn7-n5a6CFZo-11" vertex="1">
          <mxGeometry x="-340" width="100" height="470" as="geometry" />
        </mxCell>
        <mxCell id="vw32TlPiH6fbDFEC2ICf-2" value="" style="points=[];perimeter=orthogonalPerimeter;rounded=0;shadow=0;strokeWidth=1;" parent="vw32TlPiH6fbDFEC2ICf-1" vertex="1">
          <mxGeometry x="45" y="70" width="10" height="170" as="geometry" />
        </mxCell>
        <mxCell id="vw32TlPiH6fbDFEC2ICf-3" value="" style="html=1;points=[];perimeter=orthogonalPerimeter;fontFamily=Lucida Console;" parent="vw32TlPiH6fbDFEC2ICf-1" vertex="1">
          <mxGeometry x="45" y="260" width="10" height="110" as="geometry" />
        </mxCell>
        <mxCell id="vw32TlPiH6fbDFEC2ICf-4" value="장바구니에 담기 클릭" style="html=1;verticalAlign=bottom;endArrow=block;rounded=0;fontFamily=Lucida Console;" parent="vw32TlPiH6fbDFEC2ICf-1" target="vw32TlPiH6fbDFEC2ICf-5" edge="1">
          <mxGeometry width="80" relative="1" as="geometry">
            <mxPoint x="50" y="270" as="sourcePoint" />
            <mxPoint x="130" y="270" as="targetPoint" />
          </mxGeometry>
        </mxCell>
        <mxCell id="vw32TlPiH6fbDFEC2ICf-5" value="화면" style="shape=umlLifeline;perimeter=lifelinePerimeter;container=1;collapsible=0;recursiveResize=0;rounded=0;shadow=0;strokeWidth=1;" parent="ipI6lHQ7gn7-n5a6CFZo-11" vertex="1">
          <mxGeometry x="-160" width="100" height="470" as="geometry" />
        </mxCell>
        <mxCell id="vw32TlPiH6fbDFEC2ICf-6" value="" style="points=[];perimeter=orthogonalPerimeter;rounded=0;shadow=0;strokeWidth=1;" parent="vw32TlPiH6fbDFEC2ICf-5" vertex="1">
          <mxGeometry x="45" y="70" width="10" height="140" as="geometry" />
        </mxCell>
        <mxCell id="vw32TlPiH6fbDFEC2ICf-7" value="상품정보요청" style="html=1;verticalAlign=bottom;endArrow=block;rounded=0;fontFamily=Lucida Console;" parent="vw32TlPiH6fbDFEC2ICf-5" edge="1">
          <mxGeometry width="80" relative="1" as="geometry">
            <mxPoint x="50" y="80" as="sourcePoint" />
            <mxPoint x="130" y="80" as="targetPoint" />
          </mxGeometry>
        </mxCell>
        <mxCell id="vw32TlPiH6fbDFEC2ICf-8" value="" style="html=1;points=[];perimeter=orthogonalPerimeter;fontFamily=Lucida Console;" parent="vw32TlPiH6fbDFEC2ICf-5" vertex="1">
          <mxGeometry x="45" y="260" width="10" height="100" as="geometry" />
        </mxCell>
        <mxCell id="vw32TlPiH6fbDFEC2ICf-9" value="장바구니에 담기위한 &lt;br&gt;정보전송" style="html=1;verticalAlign=bottom;endArrow=block;rounded=0;fontFamily=Lucida Console;" parent="vw32TlPiH6fbDFEC2ICf-5" edge="1">
          <mxGeometry width="80" relative="1" as="geometry">
            <mxPoint x="50" y="280" as="sourcePoint" />
            <mxPoint x="130" y="280" as="targetPoint" />
          </mxGeometry>
        </mxCell>
        <mxCell id="ipI6lHQ7gn7-n5a6CFZo-17" value="DB" style="shape=umlLifeline;perimeter=lifelinePerimeter;container=1;collapsible=0;recursiveResize=0;rounded=0;shadow=0;strokeWidth=1;" parent="1" vertex="1">
          <mxGeometry x="620" y="80" width="100" height="470" as="geometry" />
        </mxCell>
        <mxCell id="6Oc7UGrF1Llb5wIBNULn-10" value="" style="html=1;points=[];perimeter=orthogonalPerimeter;fontFamily=Lucida Console;" parent="ipI6lHQ7gn7-n5a6CFZo-17" vertex="1">
          <mxGeometry x="45" y="80" width="10" height="120" as="geometry" />
        </mxCell>
        <mxCell id="6Oc7UGrF1Llb5wIBNULn-12" value="" style="html=1;points=[];perimeter=orthogonalPerimeter;fontFamily=Lucida Console;" parent="ipI6lHQ7gn7-n5a6CFZo-17" vertex="1">
          <mxGeometry x="50" y="140" width="10" height="40" as="geometry" />
        </mxCell>
        <mxCell id="6Oc7UGrF1Llb5wIBNULn-13" value="상품조회" style="edgeStyle=orthogonalEdgeStyle;html=1;align=left;spacingLeft=2;endArrow=block;rounded=0;entryX=1;entryY=0;fontFamily=Lucida Console;" parent="ipI6lHQ7gn7-n5a6CFZo-17" target="6Oc7UGrF1Llb5wIBNULn-12" edge="1">
          <mxGeometry relative="1" as="geometry">
            <mxPoint x="55" y="120" as="sourcePoint" />
            <Array as="points">
              <mxPoint x="85" y="120" />
            </Array>
          </mxGeometry>
        </mxCell>
        <mxCell id="6Oc7UGrF1Llb5wIBNULn-21" value="" style="html=1;points=[];perimeter=orthogonalPerimeter;fontFamily=Lucida Console;" parent="ipI6lHQ7gn7-n5a6CFZo-17" vertex="1">
          <mxGeometry x="45" y="260" width="10" height="90" as="geometry" />
        </mxCell>
        <mxCell id="6Oc7UGrF1Llb5wIBNULn-25" value="장바구니에 추가" style="html=1;verticalAlign=bottom;endArrow=block;rounded=0;fontFamily=Lucida Console;" parent="ipI6lHQ7gn7-n5a6CFZo-17" target="6Oc7UGrF1Llb5wIBNULn-1" edge="1">
          <mxGeometry width="80" relative="1" as="geometry">
            <mxPoint x="50" y="300" as="sourcePoint" />
            <mxPoint x="130" y="300" as="targetPoint" />
          </mxGeometry>
        </mxCell>
        <mxCell id="6Oc7UGrF1Llb5wIBNULn-1" value="장바구니" style="shape=umlLifeline;perimeter=lifelinePerimeter;container=1;collapsible=0;recursiveResize=0;rounded=0;shadow=0;strokeWidth=1;size=30;" parent="1" vertex="1">
          <mxGeometry x="750" y="80" width="100" height="480" as="geometry" />
        </mxCell>
        <mxCell id="6Oc7UGrF1Llb5wIBNULn-20" value="" style="html=1;points=[];perimeter=orthogonalPerimeter;fontFamily=Lucida Console;" parent="6Oc7UGrF1Llb5wIBNULn-1" vertex="1">
          <mxGeometry x="45" y="290" width="10" height="80" as="geometry" />
        </mxCell>
        <mxCell id="6Oc7UGrF1Llb5wIBNULn-14" value="조회한상품정보리턴" style="html=1;verticalAlign=bottom;endArrow=open;dashed=1;endSize=8;rounded=0;fontFamily=Lucida Console;" parent="1" target="ipI6lHQ7gn7-n5a6CFZo-11" edge="1">
          <mxGeometry relative="1" as="geometry">
            <mxPoint x="670" y="250" as="sourcePoint" />
            <mxPoint x="590" y="250" as="targetPoint" />
          </mxGeometry>
        </mxCell>
        <mxCell id="6Oc7UGrF1Llb5wIBNULn-15" value="조회한상품정보리턴" style="html=1;verticalAlign=bottom;endArrow=open;dashed=1;endSize=8;rounded=0;fontFamily=Lucida Console;" parent="1" target="ipI6lHQ7gn7-n5a6CFZo-4" edge="1">
          <mxGeometry relative="1" as="geometry">
            <mxPoint x="510" y="260" as="sourcePoint" />
            <mxPoint x="430" y="260" as="targetPoint" />
          </mxGeometry>
        </mxCell>
        <mxCell id="6Oc7UGrF1Llb5wIBNULn-16" value="조회한상품정보결과출력" style="html=1;verticalAlign=bottom;endArrow=open;dashed=1;endSize=8;rounded=0;fontFamily=Lucida Console;" parent="1" target="ipI6lHQ7gn7-n5a6CFZo-1" edge="1">
          <mxGeometry relative="1" as="geometry">
            <mxPoint x="350" y="280" as="sourcePoint" />
            <mxPoint x="270" y="280" as="targetPoint" />
          </mxGeometry>
        </mxCell>
        <mxCell id="6Oc7UGrF1Llb5wIBNULn-26" value="추가완료정보반환" style="html=1;verticalAlign=bottom;endArrow=open;dashed=1;endSize=8;rounded=0;fontFamily=Lucida Console;" parent="1" target="ipI6lHQ7gn7-n5a6CFZo-11" edge="1">
          <mxGeometry relative="1" as="geometry">
            <mxPoint x="670" y="420" as="sourcePoint" />
            <mxPoint x="590" y="420" as="targetPoint" />
          </mxGeometry>
        </mxCell>
        <mxCell id="6Oc7UGrF1Llb5wIBNULn-27" value="추가완료정보반환" style="html=1;verticalAlign=bottom;endArrow=open;dashed=1;endSize=8;rounded=0;fontFamily=Lucida Console;" parent="1" target="ipI6lHQ7gn7-n5a6CFZo-4" edge="1">
          <mxGeometry relative="1" as="geometry">
            <mxPoint x="500" y="430" as="sourcePoint" />
            <mxPoint x="420" y="430" as="targetPoint" />
          </mxGeometry>
        </mxCell>
        <mxCell id="6Oc7UGrF1Llb5wIBNULn-28" value="추가완료 결과출력" style="html=1;verticalAlign=bottom;endArrow=open;dashed=1;endSize=8;rounded=0;fontFamily=Lucida Console;" parent="1" target="ipI6lHQ7gn7-n5a6CFZo-1" edge="1">
          <mxGeometry relative="1" as="geometry">
            <mxPoint x="350" y="430" as="sourcePoint" />
            <mxPoint x="230" y="430" as="targetPoint" />
          </mxGeometry>
        </mxCell>
      </root>
    </mxGraphModel>
  </diagram>
  <diagram id="hxUDdKV0xFVNItUS2BUa" name="상품문의">
    <mxGraphModel dx="1102" dy="580" grid="1" gridSize="10" guides="1" tooltips="1" connect="1" arrows="1" fold="1" page="1" pageScale="1" pageWidth="827" pageHeight="1169" math="0" shadow="0">
      <root>
        <mxCell id="0" />
        <mxCell id="1" parent="0" />
        <mxCell id="o23Y2xAcvf6W3C2Q9Pzw-1" value="서버" style="shape=umlLifeline;perimeter=lifelinePerimeter;container=1;collapsible=0;recursiveResize=0;rounded=0;shadow=0;strokeWidth=1;" parent="1" vertex="1">
          <mxGeometry x="460" y="80" width="100" height="470" as="geometry" />
        </mxCell>
        <mxCell id="o23Y2xAcvf6W3C2Q9Pzw-2" value="" style="html=1;points=[];perimeter=orthogonalPerimeter;fontFamily=Lucida Console;" parent="o23Y2xAcvf6W3C2Q9Pzw-1" vertex="1">
          <mxGeometry x="45" y="280" width="10" height="170" as="geometry" />
        </mxCell>
        <mxCell id="o23Y2xAcvf6W3C2Q9Pzw-6" value="고객" style="shape=umlLifeline;perimeter=lifelinePerimeter;container=1;collapsible=0;recursiveResize=0;rounded=0;shadow=0;strokeWidth=1;" parent="o23Y2xAcvf6W3C2Q9Pzw-1" vertex="1">
          <mxGeometry x="-340" width="100" height="470" as="geometry" />
        </mxCell>
        <mxCell id="o23Y2xAcvf6W3C2Q9Pzw-7" value="" style="points=[];perimeter=orthogonalPerimeter;rounded=0;shadow=0;strokeWidth=1;" parent="o23Y2xAcvf6W3C2Q9Pzw-6" vertex="1">
          <mxGeometry x="45" y="280" width="10" height="190" as="geometry" />
        </mxCell>
        <mxCell id="UO_ilU4rWgqYLGkJUSr1-1" value="상품문의내용 작성" style="html=1;verticalAlign=bottom;endArrow=block;rounded=0;fontFamily=Lucida Console;" parent="o23Y2xAcvf6W3C2Q9Pzw-6" edge="1">
          <mxGeometry width="80" relative="1" as="geometry">
            <mxPoint x="50" y="290" as="sourcePoint" />
            <mxPoint x="229.5" y="290" as="targetPoint" />
          </mxGeometry>
        </mxCell>
        <mxCell id="o23Y2xAcvf6W3C2Q9Pzw-10" value="화면" style="shape=umlLifeline;perimeter=lifelinePerimeter;container=1;collapsible=0;recursiveResize=0;rounded=0;shadow=0;strokeWidth=1;" parent="o23Y2xAcvf6W3C2Q9Pzw-1" vertex="1">
          <mxGeometry x="-160" width="100" height="470" as="geometry" />
        </mxCell>
        <mxCell id="o23Y2xAcvf6W3C2Q9Pzw-11" value="" style="points=[];perimeter=orthogonalPerimeter;rounded=0;shadow=0;strokeWidth=1;" parent="o23Y2xAcvf6W3C2Q9Pzw-10" vertex="1">
          <mxGeometry x="45" y="280" width="10" height="180" as="geometry" />
        </mxCell>
        <mxCell id="UO_ilU4rWgqYLGkJUSr1-2" value="작성내용전달" style="html=1;verticalAlign=bottom;endArrow=block;rounded=0;fontFamily=Lucida Console;" parent="o23Y2xAcvf6W3C2Q9Pzw-10" edge="1">
          <mxGeometry width="80" relative="1" as="geometry">
            <mxPoint x="50" y="300" as="sourcePoint" />
            <mxPoint x="209.5" y="300" as="targetPoint" />
          </mxGeometry>
        </mxCell>
        <mxCell id="UO_ilU4rWgqYLGkJUSr1-3" value="작성내용전달" style="html=1;verticalAlign=bottom;endArrow=block;rounded=0;fontFamily=Lucida Console;" parent="o23Y2xAcvf6W3C2Q9Pzw-1" edge="1">
          <mxGeometry width="80" relative="1" as="geometry">
            <mxPoint x="50" y="310" as="sourcePoint" />
            <mxPoint x="209.5" y="310" as="targetPoint" />
          </mxGeometry>
        </mxCell>
        <mxCell id="o23Y2xAcvf6W3C2Q9Pzw-15" value="DB" style="shape=umlLifeline;perimeter=lifelinePerimeter;container=1;collapsible=0;recursiveResize=0;rounded=0;shadow=0;strokeWidth=1;" parent="1" vertex="1">
          <mxGeometry x="620" y="80" width="100" height="470" as="geometry" />
        </mxCell>
        <mxCell id="o23Y2xAcvf6W3C2Q9Pzw-16" value="" style="html=1;points=[];perimeter=orthogonalPerimeter;fontFamily=Lucida Console;" parent="o23Y2xAcvf6W3C2Q9Pzw-15" vertex="1">
          <mxGeometry x="45" y="290" width="10" height="160" as="geometry" />
        </mxCell>
        <mxCell id="UO_ilU4rWgqYLGkJUSr1-4" value="작성 결과값 반환" style="html=1;verticalAlign=bottom;endArrow=open;dashed=1;endSize=8;rounded=0;fontFamily=Lucida Console;" parent="1" edge="1">
          <mxGeometry relative="1" as="geometry">
            <mxPoint x="670" y="460" as="sourcePoint" />
            <mxPoint x="509.5" y="460" as="targetPoint" />
          </mxGeometry>
        </mxCell>
        <mxCell id="UO_ilU4rWgqYLGkJUSr1-6" value="작성 결과값 반환" style="html=1;verticalAlign=bottom;endArrow=open;dashed=1;endSize=8;rounded=0;fontFamily=Lucida Console;" parent="1" edge="1">
          <mxGeometry relative="1" as="geometry">
            <mxPoint x="510" y="470" as="sourcePoint" />
            <mxPoint x="349.5" y="470" as="targetPoint" />
          </mxGeometry>
        </mxCell>
        <mxCell id="UO_ilU4rWgqYLGkJUSr1-8" value="작성 성공 시&lt;br&gt;내가 작성한 문의글 출력" style="html=1;verticalAlign=bottom;endArrow=open;dashed=1;endSize=8;rounded=0;fontFamily=Lucida Console;" parent="1" edge="1">
          <mxGeometry relative="1" as="geometry">
            <mxPoint x="350" y="480" as="sourcePoint" />
            <mxPoint x="169.5" y="480" as="targetPoint" />
          </mxGeometry>
        </mxCell>
        <mxCell id="UO_ilU4rWgqYLGkJUSr1-10" value="" style="html=1;points=[];perimeter=orthogonalPerimeter;fontFamily=Lucida Console;" parent="1" vertex="1">
          <mxGeometry x="505" y="150" width="10" height="170" as="geometry" />
        </mxCell>
        <mxCell id="UO_ilU4rWgqYLGkJUSr1-11" value="" style="points=[];perimeter=orthogonalPerimeter;rounded=0;shadow=0;strokeWidth=1;" parent="1" vertex="1">
          <mxGeometry x="165" y="150" width="10" height="190" as="geometry" />
        </mxCell>
        <mxCell id="UO_ilU4rWgqYLGkJUSr1-12" value="상품 문의 클릭" style="html=1;verticalAlign=bottom;endArrow=block;rounded=0;fontFamily=Lucida Console;" parent="1" edge="1">
          <mxGeometry width="80" relative="1" as="geometry">
            <mxPoint x="170" y="160" as="sourcePoint" />
            <mxPoint x="349.5" y="160" as="targetPoint" />
          </mxGeometry>
        </mxCell>
        <mxCell id="UO_ilU4rWgqYLGkJUSr1-13" value="" style="points=[];perimeter=orthogonalPerimeter;rounded=0;shadow=0;strokeWidth=1;" parent="1" vertex="1">
          <mxGeometry x="345" y="150" width="10" height="180" as="geometry" />
        </mxCell>
        <mxCell id="UO_ilU4rWgqYLGkJUSr1-14" value="상품 문의 목록 요청" style="html=1;verticalAlign=bottom;endArrow=block;rounded=0;fontFamily=Lucida Console;" parent="1" edge="1">
          <mxGeometry width="80" relative="1" as="geometry">
            <mxPoint x="350" y="170" as="sourcePoint" />
            <mxPoint x="509.5" y="170" as="targetPoint" />
          </mxGeometry>
        </mxCell>
        <mxCell id="UO_ilU4rWgqYLGkJUSr1-15" value="상품 문의 목록 요청" style="html=1;verticalAlign=bottom;endArrow=block;rounded=0;fontFamily=Lucida Console;" parent="1" edge="1">
          <mxGeometry width="80" relative="1" as="geometry">
            <mxPoint x="510" y="180" as="sourcePoint" />
            <mxPoint x="669.5" y="180" as="targetPoint" />
          </mxGeometry>
        </mxCell>
        <mxCell id="UO_ilU4rWgqYLGkJUSr1-16" value="" style="html=1;points=[];perimeter=orthogonalPerimeter;fontFamily=Lucida Console;" parent="1" vertex="1">
          <mxGeometry x="665" y="160" width="10" height="160" as="geometry" />
        </mxCell>
        <mxCell id="UO_ilU4rWgqYLGkJUSr1-17" value="상품 문의글 목록 반환" style="html=1;verticalAlign=bottom;endArrow=open;dashed=1;endSize=8;rounded=0;fontFamily=Lucida Console;" parent="1" edge="1">
          <mxGeometry relative="1" as="geometry">
            <mxPoint x="670" y="250" as="sourcePoint" />
            <mxPoint x="509.5" y="250" as="targetPoint" />
          </mxGeometry>
        </mxCell>
        <mxCell id="UO_ilU4rWgqYLGkJUSr1-18" value="상품 문의글 목록" style="html=1;verticalAlign=bottom;endArrow=open;dashed=1;endSize=8;rounded=0;fontFamily=Lucida Console;" parent="1" edge="1">
          <mxGeometry relative="1" as="geometry">
            <mxPoint x="510" y="260" as="sourcePoint" />
            <mxPoint x="349.5" y="260" as="targetPoint" />
          </mxGeometry>
        </mxCell>
        <mxCell id="UO_ilU4rWgqYLGkJUSr1-19" value="상품 문의글 목록 출력" style="html=1;verticalAlign=bottom;endArrow=open;dashed=1;endSize=8;rounded=0;fontFamily=Lucida Console;" parent="1" edge="1">
          <mxGeometry relative="1" as="geometry">
            <mxPoint x="350" y="270" as="sourcePoint" />
            <mxPoint x="169.5" y="270" as="targetPoint" />
          </mxGeometry>
        </mxCell>
      </root>
    </mxGraphModel>
  </diagram>
  <diagram name="상품리뷰" id="1OhWtaCyEUegtvWGkhS7">
    <mxGraphModel dx="1102" dy="580" grid="1" gridSize="10" guides="1" tooltips="1" connect="1" arrows="1" fold="1" page="1" pageScale="1" pageWidth="827" pageHeight="1169" math="0" shadow="0">
      <root>
        <mxCell id="ETDrX0p7VUwEH2A4yiXU-0" />
        <mxCell id="ETDrX0p7VUwEH2A4yiXU-1" parent="ETDrX0p7VUwEH2A4yiXU-0" />
        <mxCell id="ETDrX0p7VUwEH2A4yiXU-2" value="서버" style="shape=umlLifeline;perimeter=lifelinePerimeter;container=1;collapsible=0;recursiveResize=0;rounded=0;shadow=0;strokeWidth=1;" parent="ETDrX0p7VUwEH2A4yiXU-1" vertex="1">
          <mxGeometry x="460" y="80" width="100" height="470" as="geometry" />
        </mxCell>
        <mxCell id="ETDrX0p7VUwEH2A4yiXU-3" value="" style="html=1;points=[];perimeter=orthogonalPerimeter;fontFamily=Lucida Console;" parent="ETDrX0p7VUwEH2A4yiXU-2" vertex="1">
          <mxGeometry x="45" y="280" width="10" height="170" as="geometry" />
        </mxCell>
        <mxCell id="ETDrX0p7VUwEH2A4yiXU-4" value="고객" style="shape=umlLifeline;perimeter=lifelinePerimeter;container=1;collapsible=0;recursiveResize=0;rounded=0;shadow=0;strokeWidth=1;" parent="ETDrX0p7VUwEH2A4yiXU-2" vertex="1">
          <mxGeometry x="-340" width="100" height="470" as="geometry" />
        </mxCell>
        <mxCell id="ETDrX0p7VUwEH2A4yiXU-5" value="" style="points=[];perimeter=orthogonalPerimeter;rounded=0;shadow=0;strokeWidth=1;" parent="ETDrX0p7VUwEH2A4yiXU-4" vertex="1">
          <mxGeometry x="45" y="280" width="10" height="190" as="geometry" />
        </mxCell>
        <mxCell id="ETDrX0p7VUwEH2A4yiXU-6" value="상품 리뷰 작성" style="html=1;verticalAlign=bottom;endArrow=block;rounded=0;fontFamily=Lucida Console;" parent="ETDrX0p7VUwEH2A4yiXU-4" edge="1">
          <mxGeometry width="80" relative="1" as="geometry">
            <mxPoint x="50" y="290" as="sourcePoint" />
            <mxPoint x="229.5" y="290" as="targetPoint" />
          </mxGeometry>
        </mxCell>
        <mxCell id="ETDrX0p7VUwEH2A4yiXU-7" value="화면" style="shape=umlLifeline;perimeter=lifelinePerimeter;container=1;collapsible=0;recursiveResize=0;rounded=0;shadow=0;strokeWidth=1;" parent="ETDrX0p7VUwEH2A4yiXU-2" vertex="1">
          <mxGeometry x="-160" width="100" height="470" as="geometry" />
        </mxCell>
        <mxCell id="ETDrX0p7VUwEH2A4yiXU-8" value="" style="points=[];perimeter=orthogonalPerimeter;rounded=0;shadow=0;strokeWidth=1;" parent="ETDrX0p7VUwEH2A4yiXU-7" vertex="1">
          <mxGeometry x="45" y="280" width="10" height="180" as="geometry" />
        </mxCell>
        <mxCell id="ETDrX0p7VUwEH2A4yiXU-9" value="작성내용전달" style="html=1;verticalAlign=bottom;endArrow=block;rounded=0;fontFamily=Lucida Console;" parent="ETDrX0p7VUwEH2A4yiXU-7" edge="1">
          <mxGeometry width="80" relative="1" as="geometry">
            <mxPoint x="50" y="300" as="sourcePoint" />
            <mxPoint x="209.5" y="300" as="targetPoint" />
          </mxGeometry>
        </mxCell>
        <mxCell id="ETDrX0p7VUwEH2A4yiXU-10" value="작성내용전달" style="html=1;verticalAlign=bottom;endArrow=block;rounded=0;fontFamily=Lucida Console;" parent="ETDrX0p7VUwEH2A4yiXU-2" edge="1">
          <mxGeometry width="80" relative="1" as="geometry">
            <mxPoint x="50" y="310" as="sourcePoint" />
            <mxPoint x="209.5" y="310" as="targetPoint" />
          </mxGeometry>
        </mxCell>
        <mxCell id="ETDrX0p7VUwEH2A4yiXU-11" value="DB" style="shape=umlLifeline;perimeter=lifelinePerimeter;container=1;collapsible=0;recursiveResize=0;rounded=0;shadow=0;strokeWidth=1;" parent="ETDrX0p7VUwEH2A4yiXU-1" vertex="1">
          <mxGeometry x="620" y="80" width="100" height="470" as="geometry" />
        </mxCell>
        <mxCell id="ETDrX0p7VUwEH2A4yiXU-12" value="" style="html=1;points=[];perimeter=orthogonalPerimeter;fontFamily=Lucida Console;" parent="ETDrX0p7VUwEH2A4yiXU-11" vertex="1">
          <mxGeometry x="45" y="290" width="10" height="160" as="geometry" />
        </mxCell>
        <mxCell id="ETDrX0p7VUwEH2A4yiXU-13" value="작성 결과값 반환" style="html=1;verticalAlign=bottom;endArrow=open;dashed=1;endSize=8;rounded=0;fontFamily=Lucida Console;" parent="ETDrX0p7VUwEH2A4yiXU-1" edge="1">
          <mxGeometry relative="1" as="geometry">
            <mxPoint x="670" y="460" as="sourcePoint" />
            <mxPoint x="509.5" y="460" as="targetPoint" />
          </mxGeometry>
        </mxCell>
        <mxCell id="ETDrX0p7VUwEH2A4yiXU-14" value="작성 결과값 반환" style="html=1;verticalAlign=bottom;endArrow=open;dashed=1;endSize=8;rounded=0;fontFamily=Lucida Console;" parent="ETDrX0p7VUwEH2A4yiXU-1" edge="1">
          <mxGeometry relative="1" as="geometry">
            <mxPoint x="510" y="470" as="sourcePoint" />
            <mxPoint x="349.5" y="470" as="targetPoint" />
          </mxGeometry>
        </mxCell>
        <mxCell id="ETDrX0p7VUwEH2A4yiXU-15" value="작성 성공 시&lt;br&gt;내가 작성한 리뷰글 출력" style="html=1;verticalAlign=bottom;endArrow=open;dashed=1;endSize=8;rounded=0;fontFamily=Lucida Console;" parent="ETDrX0p7VUwEH2A4yiXU-1" edge="1">
          <mxGeometry relative="1" as="geometry">
            <mxPoint x="350" y="480" as="sourcePoint" />
            <mxPoint x="169.5" y="480" as="targetPoint" />
          </mxGeometry>
        </mxCell>
        <mxCell id="ETDrX0p7VUwEH2A4yiXU-16" value="" style="html=1;points=[];perimeter=orthogonalPerimeter;fontFamily=Lucida Console;" parent="ETDrX0p7VUwEH2A4yiXU-1" vertex="1">
          <mxGeometry x="505" y="150" width="10" height="170" as="geometry" />
        </mxCell>
        <mxCell id="ETDrX0p7VUwEH2A4yiXU-17" value="" style="points=[];perimeter=orthogonalPerimeter;rounded=0;shadow=0;strokeWidth=1;" parent="ETDrX0p7VUwEH2A4yiXU-1" vertex="1">
          <mxGeometry x="165" y="150" width="10" height="190" as="geometry" />
        </mxCell>
        <mxCell id="ETDrX0p7VUwEH2A4yiXU-18" value="마이페이지&amp;gt;구매내역 클릭" style="html=1;verticalAlign=bottom;endArrow=block;rounded=0;fontFamily=Lucida Console;" parent="ETDrX0p7VUwEH2A4yiXU-1" edge="1">
          <mxGeometry width="80" relative="1" as="geometry">
            <mxPoint x="170" y="160" as="sourcePoint" />
            <mxPoint x="349.5" y="160" as="targetPoint" />
          </mxGeometry>
        </mxCell>
        <mxCell id="ETDrX0p7VUwEH2A4yiXU-19" value="" style="points=[];perimeter=orthogonalPerimeter;rounded=0;shadow=0;strokeWidth=1;" parent="ETDrX0p7VUwEH2A4yiXU-1" vertex="1">
          <mxGeometry x="345" y="150" width="10" height="180" as="geometry" />
        </mxCell>
        <mxCell id="ETDrX0p7VUwEH2A4yiXU-20" value="구매내역 목록 요청" style="html=1;verticalAlign=bottom;endArrow=block;rounded=0;fontFamily=Lucida Console;" parent="ETDrX0p7VUwEH2A4yiXU-1" edge="1">
          <mxGeometry width="80" relative="1" as="geometry">
            <mxPoint x="350" y="170" as="sourcePoint" />
            <mxPoint x="509.5" y="170" as="targetPoint" />
          </mxGeometry>
        </mxCell>
        <mxCell id="ETDrX0p7VUwEH2A4yiXU-21" value="구매내역 목록 요청" style="html=1;verticalAlign=bottom;endArrow=block;rounded=0;fontFamily=Lucida Console;" parent="ETDrX0p7VUwEH2A4yiXU-1" edge="1">
          <mxGeometry width="80" relative="1" as="geometry">
            <mxPoint x="510" y="180" as="sourcePoint" />
            <mxPoint x="669.5" y="180" as="targetPoint" />
          </mxGeometry>
        </mxCell>
        <mxCell id="ETDrX0p7VUwEH2A4yiXU-22" value="" style="html=1;points=[];perimeter=orthogonalPerimeter;fontFamily=Lucida Console;" parent="ETDrX0p7VUwEH2A4yiXU-1" vertex="1">
          <mxGeometry x="665" y="160" width="10" height="160" as="geometry" />
        </mxCell>
        <mxCell id="ETDrX0p7VUwEH2A4yiXU-23" value="구매내역 목록 및&lt;br&gt;리뷰를 작성 안 한 &lt;br&gt;구매내역 목록 반환" style="html=1;verticalAlign=bottom;endArrow=open;dashed=1;endSize=8;rounded=0;fontFamily=Lucida Console;" parent="ETDrX0p7VUwEH2A4yiXU-1" edge="1">
          <mxGeometry relative="1" as="geometry">
            <mxPoint x="670" y="250" as="sourcePoint" />
            <mxPoint x="509.5" y="250" as="targetPoint" />
          </mxGeometry>
        </mxCell>
        <mxCell id="ETDrX0p7VUwEH2A4yiXU-24" value="구매내역 목록 및&lt;br&gt;리뷰를 작성 안 한&lt;br&gt;구매내역 목록 반환" style="html=1;verticalAlign=bottom;endArrow=open;dashed=1;endSize=8;rounded=0;fontFamily=Lucida Console;" parent="ETDrX0p7VUwEH2A4yiXU-1" edge="1">
          <mxGeometry relative="1" as="geometry">
            <mxPoint x="510" y="260" as="sourcePoint" />
            <mxPoint x="349.5" y="260" as="targetPoint" />
          </mxGeometry>
        </mxCell>
        <mxCell id="ETDrX0p7VUwEH2A4yiXU-25" value="구매내역 출력,&lt;br&gt;리뷰를 작성 안 한 구매내역에&lt;br&gt;리뷰 작성버튼 출력" style="html=1;verticalAlign=bottom;endArrow=open;dashed=1;endSize=8;rounded=0;fontFamily=Lucida Console;" parent="ETDrX0p7VUwEH2A4yiXU-1" edge="1">
          <mxGeometry relative="1" as="geometry">
            <mxPoint x="350" y="270" as="sourcePoint" />
            <mxPoint x="169.5" y="270" as="targetPoint" />
          </mxGeometry>
        </mxCell>
      </root>
    </mxGraphModel>
  </diagram>
  <diagram id="HpgcwcSVM9xzd0BSTX2-" name="1:1문의">
    <mxGraphModel dx="1102" dy="580" grid="1" gridSize="10" guides="1" tooltips="1" connect="1" arrows="1" fold="1" page="1" pageScale="1" pageWidth="827" pageHeight="1169" math="0" shadow="0">
      <root>
        <mxCell id="0" />
        <mxCell id="1" parent="0" />
        <mxCell id="ot7OrbMFU5qi3yTMUmN1-1" value="서버" style="shape=umlLifeline;perimeter=lifelinePerimeter;container=1;collapsible=0;recursiveResize=0;rounded=0;shadow=0;strokeWidth=1;" parent="1" vertex="1">
          <mxGeometry x="460" y="80" width="100" height="470" as="geometry" />
        </mxCell>
        <mxCell id="ot7OrbMFU5qi3yTMUmN1-2" value="" style="html=1;points=[];perimeter=orthogonalPerimeter;fontFamily=Lucida Console;" parent="ot7OrbMFU5qi3yTMUmN1-1" vertex="1">
          <mxGeometry x="45" y="280" width="10" height="170" as="geometry" />
        </mxCell>
        <mxCell id="ot7OrbMFU5qi3yTMUmN1-3" value="고객" style="shape=umlLifeline;perimeter=lifelinePerimeter;container=1;collapsible=0;recursiveResize=0;rounded=0;shadow=0;strokeWidth=1;" parent="ot7OrbMFU5qi3yTMUmN1-1" vertex="1">
          <mxGeometry x="-340" width="100" height="470" as="geometry" />
        </mxCell>
        <mxCell id="ot7OrbMFU5qi3yTMUmN1-4" value="" style="points=[];perimeter=orthogonalPerimeter;rounded=0;shadow=0;strokeWidth=1;" parent="ot7OrbMFU5qi3yTMUmN1-3" vertex="1">
          <mxGeometry x="45" y="280" width="10" height="190" as="geometry" />
        </mxCell>
        <mxCell id="ot7OrbMFU5qi3yTMUmN1-5" value="1:1문의내용 작성" style="html=1;verticalAlign=bottom;endArrow=block;rounded=0;fontFamily=Lucida Console;" parent="ot7OrbMFU5qi3yTMUmN1-3" edge="1">
          <mxGeometry width="80" relative="1" as="geometry">
            <mxPoint x="50" y="290" as="sourcePoint" />
            <mxPoint x="229.5" y="290" as="targetPoint" />
          </mxGeometry>
        </mxCell>
        <mxCell id="ot7OrbMFU5qi3yTMUmN1-6" value="화면" style="shape=umlLifeline;perimeter=lifelinePerimeter;container=1;collapsible=0;recursiveResize=0;rounded=0;shadow=0;strokeWidth=1;" parent="ot7OrbMFU5qi3yTMUmN1-1" vertex="1">
          <mxGeometry x="-160" width="100" height="470" as="geometry" />
        </mxCell>
        <mxCell id="ot7OrbMFU5qi3yTMUmN1-7" value="" style="points=[];perimeter=orthogonalPerimeter;rounded=0;shadow=0;strokeWidth=1;" parent="ot7OrbMFU5qi3yTMUmN1-6" vertex="1">
          <mxGeometry x="45" y="280" width="10" height="180" as="geometry" />
        </mxCell>
        <mxCell id="ot7OrbMFU5qi3yTMUmN1-8" value="작성내용전달" style="html=1;verticalAlign=bottom;endArrow=block;rounded=0;fontFamily=Lucida Console;" parent="ot7OrbMFU5qi3yTMUmN1-6" edge="1">
          <mxGeometry width="80" relative="1" as="geometry">
            <mxPoint x="50" y="300" as="sourcePoint" />
            <mxPoint x="209.5" y="300" as="targetPoint" />
          </mxGeometry>
        </mxCell>
        <mxCell id="ot7OrbMFU5qi3yTMUmN1-9" value="작성내용전달" style="html=1;verticalAlign=bottom;endArrow=block;rounded=0;fontFamily=Lucida Console;" parent="ot7OrbMFU5qi3yTMUmN1-1" edge="1">
          <mxGeometry width="80" relative="1" as="geometry">
            <mxPoint x="50" y="310" as="sourcePoint" />
            <mxPoint x="209.5" y="310" as="targetPoint" />
          </mxGeometry>
        </mxCell>
        <mxCell id="ot7OrbMFU5qi3yTMUmN1-10" value="DB" style="shape=umlLifeline;perimeter=lifelinePerimeter;container=1;collapsible=0;recursiveResize=0;rounded=0;shadow=0;strokeWidth=1;" parent="1" vertex="1">
          <mxGeometry x="620" y="80" width="100" height="470" as="geometry" />
        </mxCell>
        <mxCell id="ot7OrbMFU5qi3yTMUmN1-11" value="" style="html=1;points=[];perimeter=orthogonalPerimeter;fontFamily=Lucida Console;" parent="ot7OrbMFU5qi3yTMUmN1-10" vertex="1">
          <mxGeometry x="45" y="290" width="10" height="160" as="geometry" />
        </mxCell>
        <mxCell id="ot7OrbMFU5qi3yTMUmN1-12" value="작성 결과값 반환" style="html=1;verticalAlign=bottom;endArrow=open;dashed=1;endSize=8;rounded=0;fontFamily=Lucida Console;" parent="1" edge="1">
          <mxGeometry relative="1" as="geometry">
            <mxPoint x="670" y="460" as="sourcePoint" />
            <mxPoint x="509.5" y="460" as="targetPoint" />
          </mxGeometry>
        </mxCell>
        <mxCell id="ot7OrbMFU5qi3yTMUmN1-13" value="작성 결과값 반환" style="html=1;verticalAlign=bottom;endArrow=open;dashed=1;endSize=8;rounded=0;fontFamily=Lucida Console;" parent="1" edge="1">
          <mxGeometry relative="1" as="geometry">
            <mxPoint x="510" y="470" as="sourcePoint" />
            <mxPoint x="349.5" y="470" as="targetPoint" />
          </mxGeometry>
        </mxCell>
        <mxCell id="ot7OrbMFU5qi3yTMUmN1-14" value="작성 성공 시&lt;br&gt;내가 작성한 문의글 출력" style="html=1;verticalAlign=bottom;endArrow=open;dashed=1;endSize=8;rounded=0;fontFamily=Lucida Console;" parent="1" edge="1">
          <mxGeometry relative="1" as="geometry">
            <mxPoint x="350" y="480" as="sourcePoint" />
            <mxPoint x="169.5" y="480" as="targetPoint" />
          </mxGeometry>
        </mxCell>
        <mxCell id="ot7OrbMFU5qi3yTMUmN1-15" value="" style="html=1;points=[];perimeter=orthogonalPerimeter;fontFamily=Lucida Console;" parent="1" vertex="1">
          <mxGeometry x="505" y="150" width="10" height="170" as="geometry" />
        </mxCell>
        <mxCell id="ot7OrbMFU5qi3yTMUmN1-16" value="" style="points=[];perimeter=orthogonalPerimeter;rounded=0;shadow=0;strokeWidth=1;" parent="1" vertex="1">
          <mxGeometry x="165" y="150" width="10" height="190" as="geometry" />
        </mxCell>
        <mxCell id="ot7OrbMFU5qi3yTMUmN1-17" value="1:1 문의 클릭" style="html=1;verticalAlign=bottom;endArrow=block;rounded=0;fontFamily=Lucida Console;" parent="1" edge="1">
          <mxGeometry width="80" relative="1" as="geometry">
            <mxPoint x="170" y="160" as="sourcePoint" />
            <mxPoint x="349.5" y="160" as="targetPoint" />
          </mxGeometry>
        </mxCell>
        <mxCell id="ot7OrbMFU5qi3yTMUmN1-18" value="" style="points=[];perimeter=orthogonalPerimeter;rounded=0;shadow=0;strokeWidth=1;" parent="1" vertex="1">
          <mxGeometry x="345" y="150" width="10" height="180" as="geometry" />
        </mxCell>
        <mxCell id="ot7OrbMFU5qi3yTMUmN1-19" value="1:1 문의 목록 요청" style="html=1;verticalAlign=bottom;endArrow=block;rounded=0;fontFamily=Lucida Console;" parent="1" edge="1">
          <mxGeometry width="80" relative="1" as="geometry">
            <mxPoint x="350" y="170" as="sourcePoint" />
            <mxPoint x="509.5" y="170" as="targetPoint" />
          </mxGeometry>
        </mxCell>
        <mxCell id="ot7OrbMFU5qi3yTMUmN1-20" value="1:1 문의 목록 요청" style="html=1;verticalAlign=bottom;endArrow=block;rounded=0;fontFamily=Lucida Console;" parent="1" edge="1">
          <mxGeometry width="80" relative="1" as="geometry">
            <mxPoint x="510" y="180" as="sourcePoint" />
            <mxPoint x="669.5" y="180" as="targetPoint" />
          </mxGeometry>
        </mxCell>
        <mxCell id="ot7OrbMFU5qi3yTMUmN1-21" value="" style="html=1;points=[];perimeter=orthogonalPerimeter;fontFamily=Lucida Console;" parent="1" vertex="1">
          <mxGeometry x="665" y="160" width="10" height="160" as="geometry" />
        </mxCell>
        <mxCell id="ot7OrbMFU5qi3yTMUmN1-22" value="1:1 문의글 목록 반환" style="html=1;verticalAlign=bottom;endArrow=open;dashed=1;endSize=8;rounded=0;fontFamily=Lucida Console;" parent="1" edge="1">
          <mxGeometry relative="1" as="geometry">
            <mxPoint x="670" y="250" as="sourcePoint" />
            <mxPoint x="509.5" y="250" as="targetPoint" />
          </mxGeometry>
        </mxCell>
        <mxCell id="ot7OrbMFU5qi3yTMUmN1-23" value="1:1 문의글 목록 반환" style="html=1;verticalAlign=bottom;endArrow=open;dashed=1;endSize=8;rounded=0;fontFamily=Lucida Console;" parent="1" edge="1">
          <mxGeometry relative="1" as="geometry">
            <mxPoint x="510" y="260" as="sourcePoint" />
            <mxPoint x="349.5" y="260" as="targetPoint" />
          </mxGeometry>
        </mxCell>
        <mxCell id="ot7OrbMFU5qi3yTMUmN1-24" value="1:1 문의글 목록 출력" style="html=1;verticalAlign=bottom;endArrow=open;dashed=1;endSize=8;rounded=0;fontFamily=Lucida Console;" parent="1" edge="1">
          <mxGeometry relative="1" as="geometry">
            <mxPoint x="350" y="270" as="sourcePoint" />
            <mxPoint x="169.5" y="270" as="targetPoint" />
          </mxGeometry>
        </mxCell>
      </root>
    </mxGraphModel>
  </diagram>
  <diagram id="O2-iJkqZ85Axw9lVsL9N" name="공지사항(작성)">
    <mxGraphModel dx="1102" dy="580" grid="1" gridSize="10" guides="1" tooltips="1" connect="1" arrows="1" fold="1" page="1" pageScale="1" pageWidth="827" pageHeight="1169" math="0" shadow="0">
      <root>
        <mxCell id="0" />
        <mxCell id="1" parent="0" />
        <mxCell id="oiQciAPBeyHv3nAWl_-1-1" value="서버" style="shape=umlLifeline;perimeter=lifelinePerimeter;container=1;collapsible=0;recursiveResize=0;rounded=0;shadow=0;strokeWidth=1;" parent="1" vertex="1">
          <mxGeometry x="460" y="80" width="100" height="470" as="geometry" />
        </mxCell>
        <mxCell id="oiQciAPBeyHv3nAWl_-1-2" value="" style="html=1;points=[];perimeter=orthogonalPerimeter;fontFamily=Lucida Console;" parent="oiQciAPBeyHv3nAWl_-1-1" vertex="1">
          <mxGeometry x="45" y="280" width="10" height="170" as="geometry" />
        </mxCell>
        <mxCell id="oiQciAPBeyHv3nAWl_-1-3" value="고객" style="shape=umlLifeline;perimeter=lifelinePerimeter;container=1;collapsible=0;recursiveResize=0;rounded=0;shadow=0;strokeWidth=1;" parent="oiQciAPBeyHv3nAWl_-1-1" vertex="1">
          <mxGeometry x="-340" width="100" height="470" as="geometry" />
        </mxCell>
        <mxCell id="oiQciAPBeyHv3nAWl_-1-4" value="" style="points=[];perimeter=orthogonalPerimeter;rounded=0;shadow=0;strokeWidth=1;" parent="oiQciAPBeyHv3nAWl_-1-3" vertex="1">
          <mxGeometry x="45" y="280" width="10" height="190" as="geometry" />
        </mxCell>
        <mxCell id="oiQciAPBeyHv3nAWl_-1-5" value="(관리자) 공지사항 작성" style="html=1;verticalAlign=bottom;endArrow=block;rounded=0;fontFamily=Lucida Console;" parent="oiQciAPBeyHv3nAWl_-1-3" edge="1">
          <mxGeometry width="80" relative="1" as="geometry">
            <mxPoint x="50" y="290" as="sourcePoint" />
            <mxPoint x="229.5" y="290" as="targetPoint" />
          </mxGeometry>
        </mxCell>
        <mxCell id="oiQciAPBeyHv3nAWl_-1-6" value="화면" style="shape=umlLifeline;perimeter=lifelinePerimeter;container=1;collapsible=0;recursiveResize=0;rounded=0;shadow=0;strokeWidth=1;" parent="oiQciAPBeyHv3nAWl_-1-1" vertex="1">
          <mxGeometry x="-160" width="100" height="470" as="geometry" />
        </mxCell>
        <mxCell id="oiQciAPBeyHv3nAWl_-1-7" value="" style="points=[];perimeter=orthogonalPerimeter;rounded=0;shadow=0;strokeWidth=1;" parent="oiQciAPBeyHv3nAWl_-1-6" vertex="1">
          <mxGeometry x="45" y="280" width="10" height="180" as="geometry" />
        </mxCell>
        <mxCell id="oiQciAPBeyHv3nAWl_-1-8" value="작성내용전달" style="html=1;verticalAlign=bottom;endArrow=block;rounded=0;fontFamily=Lucida Console;" parent="oiQciAPBeyHv3nAWl_-1-6" edge="1">
          <mxGeometry width="80" relative="1" as="geometry">
            <mxPoint x="50" y="300" as="sourcePoint" />
            <mxPoint x="209.5" y="300" as="targetPoint" />
          </mxGeometry>
        </mxCell>
        <mxCell id="oiQciAPBeyHv3nAWl_-1-9" value="작성내용전달" style="html=1;verticalAlign=bottom;endArrow=block;rounded=0;fontFamily=Lucida Console;" parent="oiQciAPBeyHv3nAWl_-1-1" edge="1">
          <mxGeometry width="80" relative="1" as="geometry">
            <mxPoint x="50" y="310" as="sourcePoint" />
            <mxPoint x="209.5" y="310" as="targetPoint" />
          </mxGeometry>
        </mxCell>
        <mxCell id="oiQciAPBeyHv3nAWl_-1-10" value="DB" style="shape=umlLifeline;perimeter=lifelinePerimeter;container=1;collapsible=0;recursiveResize=0;rounded=0;shadow=0;strokeWidth=1;" parent="1" vertex="1">
          <mxGeometry x="620" y="80" width="100" height="470" as="geometry" />
        </mxCell>
        <mxCell id="oiQciAPBeyHv3nAWl_-1-11" value="" style="html=1;points=[];perimeter=orthogonalPerimeter;fontFamily=Lucida Console;" parent="oiQciAPBeyHv3nAWl_-1-10" vertex="1">
          <mxGeometry x="45" y="290" width="10" height="160" as="geometry" />
        </mxCell>
        <mxCell id="oiQciAPBeyHv3nAWl_-1-12" value="작성 결과값 반환" style="html=1;verticalAlign=bottom;endArrow=open;dashed=1;endSize=8;rounded=0;fontFamily=Lucida Console;" parent="1" edge="1">
          <mxGeometry relative="1" as="geometry">
            <mxPoint x="670" y="460" as="sourcePoint" />
            <mxPoint x="509.5" y="460" as="targetPoint" />
          </mxGeometry>
        </mxCell>
        <mxCell id="oiQciAPBeyHv3nAWl_-1-13" value="작성 결과값 반환" style="html=1;verticalAlign=bottom;endArrow=open;dashed=1;endSize=8;rounded=0;fontFamily=Lucida Console;" parent="1" edge="1">
          <mxGeometry relative="1" as="geometry">
            <mxPoint x="510" y="470" as="sourcePoint" />
            <mxPoint x="349.5" y="470" as="targetPoint" />
          </mxGeometry>
        </mxCell>
        <mxCell id="oiQciAPBeyHv3nAWl_-1-14" value="작성 성공 시&lt;br&gt;내가 작성한 게시물 출력" style="html=1;verticalAlign=bottom;endArrow=open;dashed=1;endSize=8;rounded=0;fontFamily=Lucida Console;" parent="1" edge="1">
          <mxGeometry relative="1" as="geometry">
            <mxPoint x="350" y="480" as="sourcePoint" />
            <mxPoint x="169.5" y="480" as="targetPoint" />
          </mxGeometry>
        </mxCell>
        <mxCell id="oiQciAPBeyHv3nAWl_-1-15" value="" style="html=1;points=[];perimeter=orthogonalPerimeter;fontFamily=Lucida Console;" parent="1" vertex="1">
          <mxGeometry x="505" y="150" width="10" height="170" as="geometry" />
        </mxCell>
        <mxCell id="oiQciAPBeyHv3nAWl_-1-16" value="" style="points=[];perimeter=orthogonalPerimeter;rounded=0;shadow=0;strokeWidth=1;" parent="1" vertex="1">
          <mxGeometry x="165" y="150" width="10" height="190" as="geometry" />
        </mxCell>
        <mxCell id="oiQciAPBeyHv3nAWl_-1-17" value="공지사항 목록 클릭" style="html=1;verticalAlign=bottom;endArrow=block;rounded=0;fontFamily=Lucida Console;" parent="1" edge="1">
          <mxGeometry width="80" relative="1" as="geometry">
            <mxPoint x="170" y="160" as="sourcePoint" />
            <mxPoint x="349.5" y="160" as="targetPoint" />
          </mxGeometry>
        </mxCell>
        <mxCell id="oiQciAPBeyHv3nAWl_-1-18" value="" style="points=[];perimeter=orthogonalPerimeter;rounded=0;shadow=0;strokeWidth=1;" parent="1" vertex="1">
          <mxGeometry x="345" y="150" width="10" height="180" as="geometry" />
        </mxCell>
        <mxCell id="oiQciAPBeyHv3nAWl_-1-19" value="공지사항 목록 요청" style="html=1;verticalAlign=bottom;endArrow=block;rounded=0;fontFamily=Lucida Console;" parent="1" edge="1">
          <mxGeometry width="80" relative="1" as="geometry">
            <mxPoint x="350" y="170" as="sourcePoint" />
            <mxPoint x="509.5" y="170" as="targetPoint" />
          </mxGeometry>
        </mxCell>
        <mxCell id="oiQciAPBeyHv3nAWl_-1-20" value="공지사항 목록 요청" style="html=1;verticalAlign=bottom;endArrow=block;rounded=0;fontFamily=Lucida Console;" parent="1" edge="1">
          <mxGeometry width="80" relative="1" as="geometry">
            <mxPoint x="510" y="180" as="sourcePoint" />
            <mxPoint x="669.5" y="180" as="targetPoint" />
          </mxGeometry>
        </mxCell>
        <mxCell id="oiQciAPBeyHv3nAWl_-1-21" value="" style="html=1;points=[];perimeter=orthogonalPerimeter;fontFamily=Lucida Console;" parent="1" vertex="1">
          <mxGeometry x="665" y="160" width="10" height="160" as="geometry" />
        </mxCell>
        <mxCell id="oiQciAPBeyHv3nAWl_-1-22" value="공지사항 목록 및&lt;br&gt;현재 사용자가 관리자인지&amp;nbsp;&lt;br&gt;여부 반환" style="html=1;verticalAlign=bottom;endArrow=open;dashed=1;endSize=8;rounded=0;fontFamily=Lucida Console;" parent="1" edge="1">
          <mxGeometry relative="1" as="geometry">
            <mxPoint x="670" y="250" as="sourcePoint" />
            <mxPoint x="509.5" y="250" as="targetPoint" />
          </mxGeometry>
        </mxCell>
        <mxCell id="oiQciAPBeyHv3nAWl_-1-23" value="공지사항 목록 및&lt;br&gt;현재 사용자가 관리자인지&amp;nbsp;&lt;br&gt;여부 반환" style="html=1;verticalAlign=bottom;endArrow=open;dashed=1;endSize=8;rounded=0;fontFamily=Lucida Console;" parent="1" edge="1">
          <mxGeometry relative="1" as="geometry">
            <mxPoint x="510" y="260" as="sourcePoint" />
            <mxPoint x="349.5" y="260" as="targetPoint" />
          </mxGeometry>
        </mxCell>
        <mxCell id="oiQciAPBeyHv3nAWl_-1-24" value="공지사항 출력,&lt;br&gt;현재 로그인유저가 관리자면&lt;br&gt;글쓰기 버튼 출력" style="html=1;verticalAlign=bottom;endArrow=open;dashed=1;endSize=8;rounded=0;fontFamily=Lucida Console;" parent="1" edge="1">
          <mxGeometry relative="1" as="geometry">
            <mxPoint x="350" y="270" as="sourcePoint" />
            <mxPoint x="169.5" y="270" as="targetPoint" />
          </mxGeometry>
        </mxCell>
      </root>
    </mxGraphModel>
  </diagram>
</mxfile>
